<?xml version="1.0" encoding="UTF-8"?>
<svg version="1.1" xmlns="http://www.w3.org/2000/svg" width="500" height="200">
<path d="M0 0 C37.94505668 0 37.94505668 0 46.66796875 8.42578125 C51.53719344 14.18031952 52.48716771 20.69248433 52 28 C50.61607419 34.72024993 48.1598788 38.52810504 43 43 C43.51949219 43.3403125 44.03898437 43.680625 44.57421875 44.03125 C50.57084152 48.19895824 54.96816902 52.34997224 56.59375 59.67578125 C57.48186632 66.97246417 56.82990505 72.66695866 53.25 79.1875 C47.45182984 86.4352127 43.34155321 87.60307156 34 91 C22.78 91 11.56 91 0 91 C0 60.97 0 30.94 0 0 Z M5 4 C5 31.39 5 58.78 5 87 C26.84724186 88.23137019 26.84724186 88.23137019 46.52734375 79.6171875 C50.36506804 75.36788119 51.74232448 71.27613373 52.375 65.6875 C51.78991018 59.93411679 50.35558822 55.17510111 46.01171875 51.1640625 C41.21419794 47.76685433 36.75874711 46.04704493 31 45 C33.2704641 42.54033056 35.65724162 40.87803434 38.5 39.125 C42.94812434 36.16439776 45.33544946 34.09068745 46.4921875 28.7109375 C47.33996735 22.9840981 47.01180639 19.12007087 44 14 C38.78386107 7.79702397 33.30664529 5.72768984 25.375 4.8125 C24.08335938 4.65394531 22.79171875 4.49539062 21.4609375 4.33203125 C15.98798123 3.92467461 10.48809528 4 5 4 Z " fill="#D8D6CF" transform="translate(15,52)"/>
<path d="M0 0 C19.14 0 38.28 0 58 0 C51.25 7.875 51.25 7.875 48.47314453 10.64038086 C47.85295441 11.26049545 47.23276428 11.88061005 46.59378052 12.51951599 C45.62310135 13.48245323 45.62310135 13.48245323 44.6328125 14.46484375 C43.95322479 15.14301651 43.27363708 15.82118927 42.57345581 16.51991272 C40.42632998 18.66149141 38.27573373 20.79954529 36.125 22.9375 C34.65862227 24.39885589 33.1924742 25.86044226 31.7265625 27.32226562 C28.15410952 30.88461551 24.57697333 34.44216624 21 38 C34.365 38.495 34.365 38.495 48 39 C48 40.65 48 42.3 48 44 C34.8 44 21.6 44 8 44 C14.75 36.125 14.75 36.125 17.61865234 33.26782227 C18.25886322 32.62768692 18.8990741 31.98755157 19.5586853 31.32801819 C20.22767853 30.66418625 20.89667175 30.00035431 21.5859375 29.31640625 C22.28772125 28.61603745 22.989505 27.91566864 23.71255493 27.19407654 C25.93101136 24.98116973 28.15293815 22.77178584 30.375 20.5625 C31.88955466 19.05296686 33.40387985 17.54320343 34.91796875 16.03320312 C38.60891246 12.35236605 42.30453935 8.67632421 46 5 C25.705 4.505 25.705 4.505 5 4 C5 31.39 5 58.78 5 87 C21.5 87 38 87 55 87 C55 88.32 55 89.64 55 91 C36.85 91 18.7 91 0 91 C0 60.97 0 30.94 0 0 Z " fill="#D6D4CD" transform="translate(310,52)"/>
<path d="M0 0 C1.65 0 3.3 0 5 0 C5.00586624 0.78989822 5.01173248 1.57979645 5.01777649 2.39363098 C5.07596557 9.88092795 5.14818927 17.36790205 5.23571491 24.85490894 C5.28021752 28.70297414 5.31951621 32.55093836 5.34643555 36.39916992 C5.37267144 40.12116613 5.41321222 43.84276943 5.46318626 47.56451988 C5.47971925 48.97604121 5.49131719 50.38763028 5.49761391 51.79923439 C5.55246883 62.97844662 5.76137163 74.00324133 13.9921875 82.40625 C20.34747949 87.45091757 28.18254757 87.79078276 36 87 C42.32832014 85.97215183 46.53721925 83.56333406 50.45024109 78.43586731 C55.71747163 70.15698303 55.46431945 60.05849216 55.51171875 50.58203125 C55.52860791 49.23010169 55.54676367 47.87818743 55.56611633 46.52629089 C55.61316392 43.00671169 55.64326313 39.48719448 55.66955566 35.96740723 C55.69959268 32.36030921 55.74588631 28.75341993 55.79101562 25.14648438 C55.87803836 18.09764295 55.93836918 11.0492912 56 4 C41.15 4 26.3 4 11 4 C11 2.68 11 1.36 11 0 C27.5 0 44 0 61 0 C61.12032643 15.49091347 61.12032643 15.49091347 61.14648438 22.1640625 C61.16432286 26.69314296 61.18527841 31.22203914 61.22631836 35.75097656 C61.25924421 39.40794628 61.27692187 43.06471798 61.28463173 46.72182465 C61.29011635 48.1074815 61.30082379 49.49312921 61.31719017 50.87870026 C61.44571344 62.22490427 60.65177461 74.33694905 54 84 C47.35735337 90.64264663 39.86974739 92.93287962 30.6875 93.1875 C22.53950338 93.05078865 15.29871372 91.40838921 9 86 C-0.40403026 75.80875454 -0.44851802 61.84735455 -0.29296875 48.73046875 C-0.28735539 47.31415767 -0.28309356 45.89784066 -0.28010559 44.48152161 C-0.26879333 40.80064058 -0.23944851 37.12012953 -0.20599365 33.43939209 C-0.17499421 29.66472372 -0.16153725 25.88999405 -0.14648438 22.11523438 C-0.11456157 14.74332312 -0.06353642 7.3717139 0 0 Z " fill="#DAD8D1" transform="translate(80,52)"/>
<path d="M0 0 C4.45709953 4.26990135 8.10952887 9.27194646 9.1875 15.44140625 C8.54294425 19.11882702 6.72778869 20.10162256 3.75 22.25 C-1.27848227 25.71724586 -4.24267177 26.84426653 -10.25 25.9375 C-6.2799782 21.71935183 -1.94159716 18.32522897 2.75 14.9375 C0.5333651 9.83552471 -1.33333827 5.91036523 -6.25 2.9375 C-14.3397741 -0.17395158 -21.95202061 0.2548402 -30.08203125 2.96484375 C-34.5222393 4.95693709 -35.83643785 7.89374791 -37.5625 12.25 C-38.48764176 17.21212397 -38.61582788 21.2349044 -36.33203125 25.75390625 C-30.5779365 33.66799965 -19.68752761 36.91588442 -10.9597168 40.61352539 C-1.69945063 44.55122611 5.79561359 48.63744621 11.75 56.9375 C14.07202957 63.42219234 12.88465275 72.27579982 10.0625 78.4375 C6.70743447 84.08876285 2.85664577 86.81317516 -3.3125 88.75 C-13.91452345 91.28871582 -25.88310774 91.25705958 -35.5 85.6875 C-42.29427283 81.04091977 -45.13352825 75.68068932 -47.25 67.9375 C-44.775 66.9475 -44.775 66.9475 -42.25 65.9375 C-42.00765625 66.52917969 -41.7653125 67.12085937 -41.515625 67.73046875 C-38.60213892 74.59957246 -36.47881278 79.25884336 -29.3125 82.25 C-19.72075046 85.39609385 -9.50920876 85.04873169 -0.25 80.9375 C4.30817353 77.89871765 5.54011952 73.07296391 6.75 67.9375 C7.24199478 63.79068684 7.08582496 61.65295319 5.3125 57.875 C-1.55556531 50.00185196 -11.35017776 46.54768879 -20.81054688 42.7265625 C-29.42086942 39.13845198 -36.92479294 34.76868685 -42.25 26.9375 C-45.17657476 19.5574419 -44.44487454 12.04972861 -41.3125 4.75390625 C-38.20138841 -0.26924267 -33.76138921 -2.33007714 -28.25 -4.0625 C-18.72146821 -6.06850669 -7.87738899 -6.39667677 0 0 Z " fill="#D3D1CA" transform="translate(416.25,55.0625)"/>
<path d="M0 0 C30.85514019 0 30.85514019 0 42 10 C42.66644531 10.55171875 43.33289063 11.1034375 44.01953125 11.671875 C51.18591562 18.0846243 57.32598834 28.29395497 58.17700195 38.02368164 C58.66664404 55.0948287 55.71932748 66.85793009 43.875 79.6875 C30.79472875 92.36803461 18.23071494 91 0 91 C0 60.97 0 30.94 0 0 Z M5 4 C5 31.39 5 58.78 5 87 C20.51270225 87 30.29849563 85.29353243 41.6875 74.75 C51.00476165 64.95604124 53.62746335 54.3406241 53.30859375 41.234375 C52.67940108 29.48596415 46.46646022 20.96405258 38.0625 13.1875 C28.10562269 4.97877672 17.70526674 4 5 4 Z " fill="#D7D6CE" transform="translate(155,52)"/>
<path d="M0 0 C31.02591793 0 31.02591793 0 44.96875 12.80859375 C54.17025815 22.51457055 58.57378289 34.89021575 58.2421875 48.1171875 C57.20906859 60.41463517 52.13032436 72.04824835 42.94140625 80.4765625 C29.36283194 91.13178178 18.10300563 91 0 91 C0 60.97 0 30.94 0 0 Z M4 4 C4 31.39 4 58.78 4 87 C19.22069118 87 29.67666753 85.47672817 41 75 C48.72017781 66.65596944 52.96966447 56.90221397 53.5 45.5 C52.97053804 34.11656788 48.7342679 24.31627802 41 16 C29.48351354 5.75746116 19.06733804 4 4 4 Z " fill="#DEDDD5" transform="translate(223,52)"/>
<path d="M0 0 C2.77099609 -0.3137207 2.77099609 -0.3137207 6 0 C7.95947266 2.08520508 7.95947266 2.08520508 9.6640625 5.01953125 C10.30601562 6.0967041 10.94796875 7.17387695 11.609375 8.28369141 C12.28151347 9.45981041 12.95338324 10.636083 13.625 11.8125 C14.32315267 12.99797988 15.02369109 14.18205785 15.7265625 15.36474609 C17.14524515 17.75456972 18.55452521 20.1495624 19.95800781 22.54833984 C22.8575071 27.47920127 25.92309115 32.30350548 29 37.125 C29.97932186 38.66917242 30.95850557 40.21343247 31.9375 41.7578125 C32.618125 42.82773438 33.29875 43.89765625 34 45 C36.64504532 42.58398237 38.41055092 39.95325079 40.29296875 36.9140625 C40.92396484 35.89957031 41.55496094 34.88507813 42.20507812 33.83984375 C43.18637695 32.24849609 43.18637695 32.24849609 44.1875 30.625 C45.13979492 29.09166016 45.13979492 29.09166016 46.11132812 27.52734375 C50.76220582 20.0313892 55.37664716 12.51294837 60 5 C38.22 4.505 38.22 4.505 16 4 C16 2.68 16 1.36 16 0 C33.49 0 50.98 0 69 0 C67.67996026 3.30009935 66.62358246 5.83109214 64.8203125 8.7578125 C64.39194092 9.45648438 63.96356934 10.15515625 63.5222168 10.875 C63.06113525 11.6175 62.60005371 12.36 62.125 13.125 C61.64393799 13.90617187 61.16287598 14.68734375 60.66723633 15.4921875 C56.57473577 22.11933425 52.42085801 28.70814031 48.23681641 35.27783203 C47.29167805 36.76463628 46.35924886 38.25959291 45.43945312 39.76220703 C44 42 44 42 42.34179688 44.07763672 C36.13912495 52.48738305 37.10697756 62.12975529 37.125 72.125 C37.1068479 73.95836184 37.08603738 75.79169939 37.0625 77.625 C37.01098622 82.08364359 36.99554553 86.54107541 37 91 C35.35 91 33.7 91 32 91 C32.04302246 89.90349121 32.08604492 88.80698242 32.13037109 87.67724609 C32.85569587 66.07560935 33.38491042 48.99165108 19.05957031 31.62939453 C15.18916823 26.68816286 12.02619692 21.28241097 8.75 15.9375 C7.78489502 14.40899414 7.78489502 14.40899414 6.80029297 12.84960938 C6.20104004 11.89763672 5.60178711 10.94566406 4.984375 9.96484375 C4.45553711 9.1255835 3.92669922 8.28632324 3.38183594 7.42163086 C2.00370655 5.00649563 0.96727498 2.60368827 0 0 Z " fill="#DAD8D1" transform="translate(427,52)"/>
<path d="M0 0 C12.21 0 24.42 0 37 0 C35.48008928 4.55973216 34.162028 7.74157572 31.77734375 11.765625 C31.15666016 12.82007812 30.53597656 13.87453125 29.89648438 14.9609375 C29.25001953 16.04632813 28.60355469 17.13171875 27.9375 18.25 C26.65459074 20.42166404 25.37202099 22.59352869 24.08984375 24.765625 C23.52128662 25.72243164 22.95272949 26.67923828 22.36694336 27.66503906 C21.53517794 29.08582929 20.7362715 30.52745701 20 32 C15.87101953 30.62367318 15.36250151 28.64013752 13.2421875 24.8828125 C12.8936673 24.26985321 12.54514709 23.65689392 12.18606567 23.02536011 C11.4506583 21.72814397 10.71963327 20.4284351 9.99267578 19.12646484 C8.88057499 17.13498335 7.75606442 15.15095955 6.62890625 13.16796875 C1.17065017 3.51195052 1.17065017 3.51195052 0 0 Z " fill="#E8E6DE" transform="translate(444,60)"/>
<path d="M0 0 C1.65 0 3.3 0 5 0 C5 30.03 5 60.06 5 91 C3.35 91 1.7 91 0 91 C0 60.97 0 30.94 0 0 Z " fill="#C0BFB8" transform="translate(290,52)"/>
</svg>
